name rise49.5252peak65.1548fall88.8305.mot
datacolumns 19
datarows 35
range 17.81325700000000 17.86992300000000
endheader
time	ground_force1_vx	ground_force1_vy	ground_force1_vz	ground_force1_px	ground_force1_py	ground_force1_pz	ground_force2_vx	ground_force2_vy	ground_force2_vz	ground_force2_px	ground_force2_py	ground_force2_pz	ground_torque1_x	ground_torque1_y	ground_torque1_z	ground_torque2_x	ground_torque2_y	ground_torque2_z	
17.81325700000000	-8.46184600000000	41.15928000000000	-9.20146000000000	0.33232500000000	0.00000000000000	0.09237100000000	-46.19879500000000	761.57185300000003	-51.86356000000000	0.19117900000000	0.00000000000000	-0.08727700000000	0.00000000000000	-6.65837500000000	0.00000000000000	0.00000000000000	-25.41716900000000	0.00000000000000	
17.81494100000000	-9.30619900000000	48.19085000000000	-10.33251800000000	0.33824200000000	0.00000000000000	0.09331500000000	-46.70357300000000	758.70825900000000	-51.51776300000000	0.19024000000000	0.00000000000000	-0.08723300000000	0.00000000000000	-7.55933000000000	0.00000000000000	0.00000000000000	-25.29873700000000	0.00000000000000	
17.81659300000000	-9.99794900000000	55.29682900000000	-11.35523000000000	0.34375200000000	0.00000000000000	0.09416600000000	-47.22096400000000	755.77686000000006	-51.16014900000000	0.18930200000000	0.00000000000000	-0.08718500000000	0.00000000000000	-8.39809000000000	0.00000000000000	0.00000000000000	-25.18033200000000	0.00000000000000	
17.81826200000000	-10.51431600000000	62.38426600000000	-12.24530600000000	0.34891400000000	0.00000000000000	0.09494000000000	-47.75092300000000	752.77674100000002	-50.79050800000000	0.18836600000000	0.00000000000000	-0.08713300000000	0.00000000000000	-9.15531900000000	0.00000000000000	0.00000000000000	-25.06196700000000	0.00000000000000	
17.81992800000000	-10.84172200000000	69.38308400000000	-12.98678300000000	0.35377700000000	0.00000000000000	0.09564600000000	-48.29334400000000	749.70687199999998	-50.40862500000000	0.18743400000000	0.00000000000000	-0.08707700000000	0.00000000000000	-9.81746500000000	0.00000000000000	0.00000000000000	-24.94364400000000	0.00000000000000	
17.82159200000000	-10.97566700000000	76.24819500000000	-13.57211000000000	0.35837900000000	0.00000000000000	0.09629600000000	-48.84806500000000	746.56610300000000	-50.01427600000000	0.18650700000000	0.00000000000000	-0.08701700000000	0.00000000000000	-10.37700200000000	0.00000000000000	0.00000000000000	-24.82535200000000	0.00000000000000	
17.82325800000000	-10.91989100000000	82.95920300000000	-14.00154100000000	0.36275100000000	0.00000000000000	0.09689600000000	-49.41486200000000	743.35316899999998	-49.60723400000000	0.18558500000000	0.00000000000000	-0.08695200000000	0.00000000000000	-10.83214200000000	0.00000000000000	0.00000000000000	-24.70706800000000	0.00000000000000	
17.82492300000000	-10.68499900000000	89.51812300000000	-14.28198200000000	0.36692200000000	0.00000000000000	0.09745200000000	-49.99344600000000	740.06668700000000	-49.18726800000000	0.18467100000000	0.00000000000000	-0.08688300000000	0.00000000000000	-11.18612500000000	0.00000000000000	0.00000000000000	-24.58875900000000	0.00000000000000	
17.82659800000000	-10.28676600000000	95.94564699999999	-14.42550400000000	0.37091300000000	0.00000000000000	0.09796900000000	-50.58346300000000	736.70516499999997	-48.75415000000000	0.18376300000000	0.00000000000000	-0.08680800000000	0.00000000000000	-11.44621200000000	0.00000000000000	0.00000000000000	-24.47037900000000	0.00000000000000	
17.82829200000000	-9.74431100000000	102.27651700000000	-14.44768000000000	0.37474300000000	0.00000000000000	0.09845300000000	-51.18449000000000	733.26700200000005	-48.30764900000000	0.18286500000000	0.00000000000000	-0.08672900000000	0.00000000000000	-11.62252500000000	0.00000000000000	0.00000000000000	-24.35186800000000	0.00000000000000	
17.82992800000000	-9.07830600000000	108.55455300000000	-14.36593000000000	0.37842700000000	0.00000000000000	0.09890600000000	-51.79603500000000	729.75048900000002	-47.84754100000000	0.18197700000000	0.00000000000000	-0.08664500000000	0.00000000000000	-11.72684600000000	0.00000000000000	0.00000000000000	-24.23315700000000	0.00000000000000	
17.83159200000000	-8.30938100000000	114.82778800000000	-14.19800600000000	0.38197800000000	0.00000000000000	0.09933200000000	-52.41753400000000	726.15381900000000	-47.37360600000000	0.18110000000000	0.00000000000000	-0.08655600000000	0.00000000000000	-11.77148100000000	0.00000000000000	0.00000000000000	-24.11416200000000	0.00000000000000	
17.83325900000000	-7.45679200000000	121.14408700000000	-13.96070200000000	0.38540900000000	0.00000000000000	0.09973400000000	-53.04835100000000	722.47508800000003	-46.88563500000000	0.18023600000000	0.00000000000000	-0.08646100000000	0.00000000000000	-11.76828100000000	0.00000000000000	0.00000000000000	-23.99478800000000	0.00000000000000	
17.83493800000000	-6.53743400000000	127.54751100000000	-13.66886900000000	0.38872900000000	0.00000000000000	0.10011300000000	-53.68777400000000	718.71230300000002	-46.38342700000000	0.17938400000000	0.00000000000000	-0.08636100000000	0.00000000000000	-11.72785700000000	0.00000000000000	0.00000000000000	-23.87492800000000	0.00000000000000	
17.83659100000000	-5.56519700000000	134.07557600000001	-13.33474000000000	0.39194600000000	0.00000000000000	0.10047200000000	-54.33501600000000	714.86338599999999	-45.86679600000000	0.17854700000000	0.00000000000000	-0.08625600000000	0.00000000000000	-11.65903000000000	0.00000000000000	0.00000000000000	-23.75446300000000	0.00000000000000	
17.83826200000000	-4.55066800000000	140.75745200000000	-12.96758000000000	0.39506700000000	0.00000000000000	0.10081300000000	-54.98921500000000	710.92618000000004	-45.33557200000000	0.17772600000000	0.00000000000000	-0.08614400000000	0.00000000000000	-11.56850400000000	0.00000000000000	0.00000000000000	-23.63326300000000	0.00000000000000	
17.83993700000000	-3.50112800000000	147.61308399999999	-12.57361700000000	0.39810000000000	0.00000000000000	0.10113700000000	-55.64943100000000	706.89846199999999	-44.78960200000000	0.17692100000000	0.00000000000000	-0.08602700000000	0.00000000000000	-11.46076200000000	0.00000000000000	0.00000000000000	-23.51118500000000	0.00000000000000	
17.84159200000000	-2.42080200000000	154.65311500000001	-12.15621100000000	0.40104800000000	0.00000000000000	0.10144600000000	-56.31464800000000	702.77794300000005	-44.22875500000000	0.17613400000000	0.00000000000000	-0.08590400000000	0.00000000000000	-11.33814700000000	0.00000000000000	0.00000000000000	-23.38807500000000	0.00000000000000	
17.84325600000000	-1.31128900000000	161.87948800000001	-11.71620700000000	0.40391700000000	0.00000000000000	0.10174000000000	-56.98377200000000	698.56228099999998	-43.65292500000000	0.17536600000000	0.00000000000000	-0.08577500000000	0.00000000000000	-11.20109100000000	0.00000000000000	0.00000000000000	-23.26376900000000	0.00000000000000	
17.84493800000000	-0.17210500000000	169.28655000000001	-11.25242000000000	0.40671100000000	0.00000000000000	0.10202000000000	-57.65563300000000	694.24909000000002	-43.06203100000000	0.17461800000000	0.00000000000000	-0.08563900000000	0.00000000000000	-11.04844500000000	0.00000000000000	0.00000000000000	-23.13809100000000	0.00000000000000	
17.84659400000000	0.99871000000000	176.86247399999999	-10.76216700000000	0.40943300000000	0.00000000000000	0.10228900000000	-58.32898600000000	689.83594800000003	-42.45602000000000	0.17389000000000	0.00000000000000	-0.08549800000000	0.00000000000000	-10.87787200000000	0.00000000000000	0.00000000000000	-23.01085600000000	0.00000000000000	
17.84825700000000	2.20399100000000	184.59085700000000	-10.24183100000000	0.41208700000000	0.00000000000000	0.10254500000000	-59.00250900000000	685.32040900000004	-41.83487100000000	0.17318400000000	0.00000000000000	-0.08535000000000	0.00000000000000	-10.68626000000000	0.00000000000000	0.00000000000000	-22.88186800000000	0.00000000000000	
17.84993100000000	3.44689500000000	192.45231899999999	-9.68738200000000	0.41467300000000	0.00000000000000	0.10279100000000	-59.67480900000000	680.70001500000001	-41.19859600000000	0.17250100000000	0.00000000000000	-0.08519500000000	0.00000000000000	-10.47012100000000	0.00000000000000	0.00000000000000	-22.75092300000000	0.00000000000000	
17.85159400000000	4.73041700000000	200.42600100000001	-9.09483600000000	0.41719600000000	0.00000000000000	0.10302600000000	-60.34442000000000	675.97230600000000	-40.54724300000000	0.17184100000000	0.00000000000000	-0.08503400000000	0.00000000000000	-10.22594700000000	0.00000000000000	0.00000000000000	-22.61780700000000	0.00000000000000	
17.85325700000000	6.05701600000000	208.49087100000000	-8.46063300000000	0.41965600000000	0.00000000000000	0.10325200000000	-61.00980800000000	671.13483499999995	-39.88089500000000	0.17120700000000	0.00000000000000	-0.08486700000000	0.00000000000000	-9.95051100000000	0.00000000000000	0.00000000000000	-22.48229800000000	0.00000000000000	
17.85493200000000	7.42833800000000	216.62677199999999	-7.78191500000000	0.42205600000000	0.00000000000000	0.10346800000000	-61.66937000000000	666.18518300000005	-39.19967800000000	0.17059700000000	0.00000000000000	-0.08469200000000	0.00000000000000	-9.64109300000000	0.00000000000000	0.00000000000000	-22.34416700000000	0.00000000000000	
17.85659600000000	8.84505300000000	224.81519800000001	-7.05670400000000	0.42439500000000	0.00000000000000	0.10367500000000	-62.32144100000000	661.12097300000005	-38.50375600000000	0.17001400000000	0.00000000000000	-0.08451100000000	0.00000000000000	-9.29563300000000	0.00000000000000	0.00000000000000	-22.20317600000000	0.00000000000000	
17.85825600000000	10.30679100000000	233.03978599999999	-6.28399200000000	0.42667600000000	0.00000000000000	0.10387500000000	-62.96429600000000	655.93988500000000	-37.79333500000000	0.16945800000000	0.00000000000000	-0.08432400000000	0.00000000000000	-8.91281600000000	0.00000000000000	0.00000000000000	-22.05908400000000	0.00000000000000	
17.85992400000000	11.81216200000000	241.28655200000000	-5.46374300000000	0.42889900000000	0.00000000000000	0.10406600000000	-63.59615000000000	650.63967400000001	-37.06866300000000	0.16892900000000	0.00000000000000	-0.08412900000000	0.00000000000000	-8.49208700000000	0.00000000000000	0.00000000000000	-21.91164100000000	0.00000000000000	
17.86159000000000	13.35884100000000	249.54390500000000	-4.59683700000000	0.43106500000000	0.00000000000000	0.10424900000000	-64.21516699999999	645.21818499999995	-36.33003600000000	0.16842900000000	0.00000000000000	-0.08392800000000	0.00000000000000	-8.03362000000000	0.00000000000000	0.00000000000000	-21.76059400000000	0.00000000000000	
17.86326000000000	14.94370700000000	257.80247700000001	-3.68495600000000	0.43317300000000	0.00000000000000	0.10442500000000	-64.81946400000000	639.67337499999996	-35.57779000000000	0.16795900000000	0.00000000000000	-0.08372000000000	0.00000000000000	-7.53824400000000	0.00000000000000	0.00000000000000	-21.60568600000000	0.00000000000000	
17.86493400000000	16.56300100000000	266.05483800000002	-2.73044700000000	0.43522500000000	0.00000000000000	0.10459400000000	-65.40711100000000	634.00332300000002	-34.81230700000000	0.16751800000000	0.00000000000000	-0.08350400000000	0.00000000000000	-7.00733700000000	0.00000000000000	0.00000000000000	-21.44665500000000	0.00000000000000	
17.86659100000000	18.21250700000000	274.29512099999999	-1.73616800000000	0.43721900000000	0.00000000000000	0.10475600000000	-65.97613900000000	628.20625199999995	-34.03401700000000	0.16710800000000	0.00000000000000	-0.08328200000000	0.00000000000000	-6.44271600000000	0.00000000000000	0.00000000000000	-21.28323900000000	0.00000000000000	
17.86825800000000	19.88772400000000	282.51862399999999	-0.70532700000000	0.43915700000000	0.00000000000000	0.10491200000000	-66.52454800000000	622.28054299999997	-33.24339100000000	0.16672800000000	0.00000000000000	-0.08305300000000	0.00000000000000	-5.84651400000000	0.00000000000000	0.00000000000000	-21.11517200000000	0.00000000000000	
17.86992300000000	21.58402000000000	290.72141299999998	0.35865700000000	0.44103800000000	0.00000000000000	0.10506100000000	-67.05030700000000	616.22474699999998	-32.44094800000000	0.16638000000000	0.00000000000000	-0.08281700000000	0.00000000000000	-5.22106900000000	0.00000000000000	0.00000000000000	-20.94219000000000	0.00000000000000	
